<svg width="150" height="150" viewBox="0 0 150 150" fill="none" xmlns="http://www.w3.org/2000/svg">
<g clip-path="url(#clip0_51499_5515)">
<path d="M165 -15H-15V165H165V-15Z" fill="white"/>
<path d="M165 -15H-15V165H165V-15Z" fill="#FDC04E"/>
<path d="M165 -15H-15V165H165V-15Z" fill="white"/>
<path d="M165 -15H-15V165H165V-15Z" fill="#FDC04E"/>
<path d="M107.73 72.0357C113.238 66.5295 115.139 58.6185 113.138 51.5107L97.4172 67.3295L82.5985 52.5123L98.4188 36.692C91.3094 34.7888 83.5 36.592 77.8938 42.0982C72.086 47.906 70.3844 56.317 72.7875 63.6248L38.0438 98.3685C34.7391 101.673 34.7391 106.979 38.0438 110.283L39.5453 111.786C42.85 115.089 48.1563 115.089 51.461 111.786L86.2031 77.142C93.5125 79.5451 101.923 77.8435 107.73 72.0357ZM42.45 107.479C40.6469 105.678 40.6469 102.775 42.45 100.972C44.2516 99.1701 47.1547 99.1701 48.9578 100.972C50.7594 102.775 50.7594 105.678 48.9578 107.479C47.1547 109.283 44.2516 109.283 42.45 107.479Z" fill="#FDFDFD"/>
</g>
<defs>
<clipPath id="clip0_51499_5515">
<rect width="150" height="150" fill="white"/>
</clipPath>
</defs>
</svg>
