<svg width="150" height="150" viewBox="0 0 150 150" fill="none" xmlns="http://www.w3.org/2000/svg">
<path d="M63.3344 73.3563C66.4156 70.2734 67.4813 65.8469 66.3609 61.8672L57.5625 70.7219L49.2688 62.4281L58.1219 53.5734C54.1438 52.5094 49.7719 53.5172 46.6344 56.6C43.3844 59.85 42.4313 64.5578 43.7766 68.6484L24.3297 88.0937C22.4812 89.9437 22.4812 92.9141 24.3297 94.7625L25.1703 95.6031C27.0203 97.4531 29.9906 97.4531 31.8391 95.6031L51.2859 76.2141C55.3766 77.5594 60.0844 76.6063 63.3344 73.3563ZM26.7969 93.1937C25.7875 92.1859 25.7875 90.5594 26.7969 89.5516C27.8047 88.5422 29.4297 88.5422 30.4391 89.5516C31.4469 90.5594 31.4469 92.1859 30.4391 93.1937C29.4297 94.2031 27.8047 94.2031 26.7969 93.1937Z" fill="#FDC04E"/>
<path d="M61.6106 78.4781C62.0137 78.4781 62.3981 78.5124 62.7606 78.5781L63.0231 78.6218L62.6106 82.9968C62.2262 82.9015 61.6996 82.8531 61.0293 82.8531C60.02 82.8531 59.2871 83.0843 58.8293 83.5468C58.37 84.0093 58.1418 84.6765 58.1418 85.5468V92.1468H53.5043V78.7156H56.9543L57.6793 80.8656H57.9043C58.2918 80.1531 58.8293 79.5781 59.5168 79.1406C60.2075 78.6999 60.9059 78.4781 61.6106 78.4781Z" fill="#FDC04E"/>
<path d="M71.3749 92.3843C69.1405 92.3843 67.4061 91.7906 66.1686 90.6031C64.9311 89.4124 64.3124 87.7187 64.3124 85.5218C64.3124 83.2562 64.8843 81.5156 66.0311 80.3031C67.1764 79.0874 68.8124 78.4781 70.9374 78.4781C72.9624 78.4781 74.5249 79.0077 75.6249 80.0656C76.728 81.1202 77.2811 82.639 77.2811 84.6218V86.6843H68.9936C69.0264 87.4343 69.3014 88.0249 69.8186 88.4531C70.3343 88.8781 71.0405 89.0906 71.9374 89.0906C72.7499 89.0906 73.4968 89.014 74.1811 88.8593C74.8639 88.7062 75.6061 88.4437 76.4061 88.0718V91.4031C75.6764 91.7749 74.9249 92.0312 74.1499 92.1718C73.3749 92.3124 72.4499 92.3843 71.3749 92.3843ZM71.1061 81.6343C70.5593 81.6343 70.103 81.8077 69.7374 82.1531C69.3702 82.4952 69.153 83.0327 69.0874 83.7656H73.0749C73.0577 83.1202 72.8718 82.6031 72.5186 82.2156C72.1686 81.8281 71.6968 81.6343 71.1061 81.6343Z" fill="#FDC04E"/>
<path d="M83.4163 92.1468L78.2976 78.7156H83.1351L85.4101 86.6593C85.4179 86.6968 85.432 86.764 85.4538 86.8593C85.4788 86.9562 85.5038 87.0702 85.5288 87.2031C85.5538 87.3327 85.5741 87.4702 85.5913 87.6156C85.6116 87.7624 85.6226 87.8968 85.6226 88.0218H85.7038C85.7038 87.6093 85.7741 87.164 85.9163 86.6843L88.3038 78.7156H93.1288L88.0038 92.1468H83.4163Z" fill="#FDC04E"/>
<path d="M104.286 92.1468L103.711 90.4781H103.436C103.049 91.0952 102.508 91.5687 101.818 91.8968C101.125 92.2218 100.313 92.3843 99.3801 92.3843C97.9051 92.3843 96.7551 91.9562 95.9301 91.0968C95.1082 90.239 94.6989 89.0281 94.6989 87.4656V78.7156H99.3364V86.0531C99.3364 86.9327 99.4582 87.5968 99.7051 88.0468C99.9551 88.4968 100.364 88.7218 100.936 88.7218C101.732 88.7218 102.299 88.4077 102.636 87.7781C102.977 87.1499 103.149 86.089 103.149 84.5968V78.7156H107.786V92.1468H104.286Z" fill="#FDC04E"/>
<path d="M119.047 92.3843C118.367 92.3843 117.759 92.2718 117.222 92.0468C116.684 91.8218 116.15 91.4156 115.622 90.8281H115.403C115.548 91.7702 115.622 92.3546 115.622 92.5843V97.9781H110.984V78.7156H114.753L115.403 80.4218H115.622C116.479 79.1265 117.667 78.4781 119.184 78.4781C120.672 78.4781 121.837 79.0952 122.684 80.3281C123.529 81.5624 123.953 83.2531 123.953 85.4031C123.953 87.5702 123.511 89.2765 122.628 90.5218C121.748 91.764 120.554 92.3843 119.047 92.3843ZM117.49 82.1218C116.811 82.1218 116.334 82.3656 116.059 82.8531C115.787 83.3374 115.642 84.0562 115.622 85.0093V85.3781C115.622 86.5327 115.773 87.3687 116.078 87.8843C116.386 88.3968 116.873 88.6531 117.54 88.6531C118.131 88.6531 118.561 88.3999 118.828 87.8906C119.098 87.3781 119.234 86.5327 119.234 85.3531C119.234 84.1999 119.098 83.3718 118.828 82.8718C118.561 82.3718 118.115 82.1218 117.49 82.1218Z" fill="#FDC04E"/>
</svg>
