<?xml version="1.0" encoding="UTF-8"?>
<svg width="752pt" height="752pt" version="1.1" viewBox="0 0 752 752" xmlns="http://www.w3.org/2000/svg">
 <path d="m521.93 237.38c1.6562 0.625 3.3984 0.91797 5.1133 0.91797 3.8086 0 7.5508-1.4883 10.332-4.2734l31.125-31.125c3.5234-3.5234 5-8.5352 3.9414-13.41-1.0508-4.8672-4.4688-8.8164-9.1289-10.57l-15.117-5.6523-5.6719-15.117c-1.7539-4.668-5.7109-8.0703-10.59-9.1211-4.8125-1.043-9.8594 0.41797-13.395 3.9414l-31.113 31.113c-4.0352 4.0352-5.3516 10.098-3.3438 15.438v0.007813l7.0391 18.734-7.6172 7.6172c-32.344-29.465-75.195-47.613-122.3-47.613-100.34 0-181.99 81.637-181.99 181.99 0 61.473 30.707 115.81 77.508 148.77l-31.066 70.469c-2.3203 5.2852-1.8203 11.32 1.3242 16.141 3.1445 4.8203 8.457 7.6914 14.199 7.6914h38.852c6.7539 0 12.863-3.9414 15.602-10.098l24.551-55.816c13.203 3.0586 26.891 4.832 41.012 4.832 14.141 0 27.836-1.7812 41.059-4.8477l24.57 55.875c2.7344 6.1133 8.8438 10.055 15.59 10.055h38.777c5.8164 0 11.156-2.918 14.301-7.8047 3.125-4.8477 3.5508-10.875 1.2031-16.027l-30.992-70.496c46.781-32.973 77.477-87.301 77.477-148.75 0-47.129-18.156-89.988-47.66-122.36l7.5859-7.5859zm5.9961-69.75 5.7031 15.223c0.86328 2.293 2.6719 4.1094 4.9727 4.9727l15.23 5.7109-27.383 27.371-18.828-7.0664-7.0781-18.836zm-247.88 418.7-38.816 0.027344 30.023-68.102c10.23 5.8516 21.066 10.723 32.41 14.52zm201.15 0-38.816 0.066407-23.586-53.637c11.348-3.7969 22.184-8.6758 32.41-14.531zm44.992-226.07c0 90.977-74.012 164.98-164.98 164.98-90.965 0-164.98-74.02-164.98-164.98s74-164.98 164.98-164.98c42.414 0 81.02 16.227 110.28 42.633l-21.016 21.016c-23.848-21.027-55.039-33.91-89.262-33.91-74.57 0-135.25 60.664-135.25 135.25 0 74.57 60.664 135.23 135.25 135.23 74.578 0 135.23-60.664 135.23-135.23 0-34.25-12.898-65.469-33.957-89.316l21.016-21.016c26.441 29.266 42.684 67.879 42.684 110.33zm-136.59 0c0 15.648-12.738 28.387-28.387 28.387-15.648 0-28.379-12.738-28.379-28.387s12.73-28.379 28.379-28.379c4.707 0 9.082 1.2578 12.996 3.2969l-25.195 25.195c-3.3242 3.3242-3.3242 8.7031 0 12.02 1.6562 1.6562 3.8359 2.4922 6.0156 2.4922 2.1797 0 4.3477-0.83203 6.0156-2.4922l25.215-25.215c2.0625 3.9336 3.3398 8.3359 3.3398 13.082zm-2.9258-37.547c-7.2656-4.9453-16.027-7.8438-25.461-7.8438-25.023 0-45.379 20.355-45.379 45.379 0 25.035 20.355 45.387 45.379 45.387 25.035 0 45.387-20.355 45.387-45.387 0-9.4609-2.9258-18.242-7.8984-25.527l21.301-21.301c10.266 12.863 16.453 29.125 16.453 46.828 0 41.484-33.758 75.242-75.242 75.242s-75.242-33.758-75.242-75.242 33.758-75.242 75.242-75.242c17.676 0 33.91 6.168 46.762 16.406zm33.414-33.406c-15.988-13.289-36.512-21.301-58.875-21.301-50.871 0-92.254 41.383-92.254 92.254s41.383 92.242 92.254 92.242c50.871 0 92.254-41.383 92.254-92.242 0-22.391-8.0312-42.934-21.348-58.934l18.367-18.367c17.996 20.754 28.973 47.738 28.973 77.297 0 65.203-53.043 118.23-118.23 118.23-65.203 0-118.23-53.043-118.23-118.23 0-65.203 53.043-118.23 118.23-118.23 29.531 0 56.5 10.957 77.242 28.918z"/>
</svg>
