<svg width="92" height="92" viewBox="0 0 92 92" fill="none" xmlns="http://www.w3.org/2000/svg">
<g filter="url(#filter0_dd_51954_16482)">
<rect x="14" y="8" width="64" height="64" rx="16" fill="#FFDEAA"/>
<rect opacity="0.08" x="14" y="8" width="64" height="64" rx="16" fill="#271900"/>
</g>
<mask id="mask0_51954_16482" style="mask-type:alpha" maskUnits="userSpaceOnUse" x="14" y="8" width="64" height="64">
<rect x="14" y="8" width="64" height="64" fill="#D9D9D9"/>
</mask>
<g mask="url(#mask0_51954_16482)">
<path d="M42.0004 53.3333C40.5337 53.3333 39.2786 52.8115 38.2351 51.768C37.1897 50.7226 36.6671 49.4666 36.6671 48V32C36.6671 30.5333 37.1897 29.2773 38.2351 28.232C39.2786 27.1884 40.5337 26.6666 42.0004 26.6666H50.0004C51.4671 26.6666 52.7231 27.1884 53.7684 28.232C54.8119 29.2773 55.3337 30.5333 55.3337 32V48C55.3337 49.4666 54.8119 50.7226 53.7684 51.768C52.7231 52.8115 51.4671 53.3333 50.0004 53.3333H42.0004ZM16.6671 53.3333V48H27.3337V42.6666H22.0004C20.5337 42.6666 19.2786 42.144 18.2351 41.0986C17.1897 40.0551 16.6671 38.8 16.6671 37.3333V32C16.6671 30.5333 17.1897 29.2773 18.2351 28.232C19.2786 27.1884 20.5337 26.6666 22.0004 26.6666H32.6671V32H22.0004V37.3333H27.3337C28.8004 37.3333 30.0555 37.8551 31.0991 38.8986C32.1444 39.944 32.6671 41.2 32.6671 42.6666V48C32.6671 49.4666 32.1444 50.7226 31.0991 51.768C30.0555 52.8115 28.8004 53.3333 27.3337 53.3333H16.6671ZM59.3337 53.3333V48H70.0004V42.6666H64.667C63.2004 42.6666 61.9444 42.144 60.8991 41.0986C59.8555 40.0551 59.3337 38.8 59.3337 37.3333V32C59.3337 30.5333 59.8555 29.2773 60.8991 28.232C61.9444 27.1884 63.2004 26.6666 64.667 26.6666H75.3337V32H64.667V37.3333H70.0004C71.467 37.3333 72.723 37.8551 73.7684 38.8986C74.8119 39.944 75.3337 41.2 75.3337 42.6666V48C75.3337 49.4666 74.8119 50.7226 73.7684 51.768C72.723 52.8115 71.467 53.3333 70.0004 53.3333H59.3337ZM42.0004 48H50.0004V32H42.0004V48Z" fill="#1C1B1F"/>
</g>
<defs>
<filter id="filter0_dd_51954_16482" x="0" y="0" width="92" height="92" filterUnits="userSpaceOnUse" color-interpolation-filters="sRGB">
<feFlood flood-opacity="0" result="BackgroundImageFix"/>
<feColorMatrix in="SourceAlpha" type="matrix" values="0 0 0 0 0 0 0 0 0 0 0 0 0 0 0 0 0 0 127 0" result="hardAlpha"/>
<feOffset dy="2"/>
<feGaussianBlur stdDeviation="1.5"/>
<feColorMatrix type="matrix" values="0 0 0 0 0 0 0 0 0 0 0 0 0 0 0 0 0 0 0.3 0"/>
<feBlend mode="normal" in2="BackgroundImageFix" result="effect1_dropShadow_51954_16482"/>
<feColorMatrix in="SourceAlpha" type="matrix" values="0 0 0 0 0 0 0 0 0 0 0 0 0 0 0 0 0 0 127 0" result="hardAlpha"/>
<feMorphology radius="4" operator="dilate" in="SourceAlpha" result="effect2_dropShadow_51954_16482"/>
<feOffset dy="6"/>
<feGaussianBlur stdDeviation="5"/>
<feColorMatrix type="matrix" values="0 0 0 0 0 0 0 0 0 0 0 0 0 0 0 0 0 0 0.15 0"/>
<feBlend mode="normal" in2="effect1_dropShadow_51954_16482" result="effect2_dropShadow_51954_16482"/>
<feBlend mode="normal" in="SourceGraphic" in2="effect2_dropShadow_51954_16482" result="shape"/>
</filter>
</defs>
</svg>
