<svg width="92" height="92" viewBox="0 0 92 92" fill="none" xmlns="http://www.w3.org/2000/svg">
<g filter="url(#filter0_dd_51596_5836)">
<rect x="14" y="8" width="64" height="64" rx="16" fill="#FFDEAA"/>
<rect opacity="0.08" x="14" y="8" width="64" height="64" rx="16" fill="#271900"/>
</g>
<g clip-path="url(#clip0_51596_5836)">
<path d="M61.1386 24.0854C60.6574 23.6037 59.9999 23.3378 59.288 23.3378C58.4881 23.3378 57.6824 23.6749 57.0646 24.2652L54.4132 26.4173L54.31 26.511C53.7238 27.0964 53.4931 27.9187 53.635 28.747L47.4539 34.7487L46.4166 33.8511C47.1601 30.9433 47.0686 27.0698 44.561 24.5621C42.7247 22.7259 40.3752 21.7142 37.946 21.7142C36.9803 21.7142 36.0259 21.8756 35.1089 22.1932C34.6889 22.3388 34.3672 22.6813 34.2487 23.1098C34.1302 23.5383 34.2297 23.997 34.5145 24.3382L37.8459 28.3198L37.6819 30.8806L34.9133 31.1965L30.961 27.8899C30.6199 27.6042 30.1607 27.5046 29.7322 27.624C29.3036 27.743 28.9612 28.0647 28.8156 28.4847C27.7359 31.6025 28.6872 34.9605 31.4256 37.6971C32.9009 39.1733 35.0251 39.9533 37.5674 39.9533C37.7535 39.9533 37.941 39.9438 38.1285 39.9348C38.0343 40.0168 37.9396 40.098 37.8504 40.1872L30.2562 47.7809C28.1478 49.8894 28.1478 53.3194 30.2562 55.4279L31.5301 56.7018C32.5512 57.7233 33.9094 58.2857 35.3536 58.2857C36.7978 58.2857 38.1559 57.7233 39.177 56.7018L46.7708 49.1075C47.1917 48.6871 47.5229 48.2144 47.7725 47.7093L54.5178 55.5031C54.5394 55.5279 54.5619 55.5513 54.5845 55.5748C55.3406 56.3304 56.4752 56.7468 57.7811 56.7468C59.3677 56.7468 60.9782 56.1227 61.9835 55.1178C63.7509 53.3505 64.3078 49.5902 62.4396 47.7206C62.4157 47.6976 62.3927 47.675 62.3679 47.6548L52.5468 39.1571L58.2128 33.3221C58.3687 33.3487 58.5246 33.3617 58.6819 33.3617C59.3605 33.3617 59.9869 33.108 60.4465 32.6488L62.6924 29.8942C63.2065 29.3571 63.5282 28.6798 63.603 27.9787C63.69 27.1577 63.4237 26.3709 62.8726 25.8202L61.1386 24.0854ZM44.8593 47.196L37.2655 54.7902C36.755 55.3008 36.0759 55.582 35.3536 55.582C34.6312 55.582 33.9526 55.3008 33.4416 54.7902L32.1677 53.5164C31.1137 52.4619 31.1137 50.7469 32.1677 49.6933L39.7619 42.0987C40.2725 41.5881 40.9516 41.307 41.6734 41.307C41.8857 41.307 42.0934 41.3349 42.2948 41.3813L45.6465 45.2543C45.6546 45.9559 45.3937 46.6616 44.8593 47.196ZM60.0711 53.2063C59.5705 53.707 58.6499 54.0431 57.7802 54.0431C57.2345 54.0431 56.7681 53.9111 56.5216 53.6876L42.1885 37.1266C41.8294 36.7116 41.2544 36.5548 40.7353 36.7301C39.7259 37.0698 38.6304 37.2492 37.567 37.2492C35.7835 37.2492 34.2811 36.7292 33.3371 35.7847C32.4827 34.9303 31.2827 33.4189 31.1034 31.5345L33.6223 33.642C33.9062 33.8799 34.2743 33.9903 34.6434 33.9484L39.1112 33.4383C39.7615 33.364 40.2653 32.835 40.3067 32.1816L40.5775 27.953C40.5996 27.6065 40.4879 27.2654 40.2653 26.9995L38.1073 24.4202C39.7579 24.4652 41.3648 25.1903 42.6481 26.4736C44.4136 28.2396 44.3753 31.5471 43.5922 33.8732C43.4169 34.3932 43.5737 34.9677 43.9887 35.3269L60.5519 49.66C61.1526 50.3174 61.0107 52.2664 60.0711 53.2063ZM60.7268 28.0386L58.6057 30.6396C58.5837 30.631 58.5589 30.6193 58.5318 30.6031L57.6139 30.0578L50.5001 37.3848L49.5056 36.5246L56.9002 29.344L56.3554 28.427C56.3396 28.3991 56.327 28.3743 56.3193 28.3527L58.8162 26.3254L58.9198 26.2316C59.0545 26.0978 59.1893 26.0514 59.2731 26.0437L60.916 27.6867C60.9106 27.7543 60.8669 27.898 60.7268 28.0386Z" fill="#271900"/>
</g>
<defs>
<filter id="filter0_dd_51596_5836" x="0" y="0" width="92" height="92" filterUnits="userSpaceOnUse" color-interpolation-filters="sRGB">
<feFlood flood-opacity="0" result="BackgroundImageFix"/>
<feColorMatrix in="SourceAlpha" type="matrix" values="0 0 0 0 0 0 0 0 0 0 0 0 0 0 0 0 0 0 127 0" result="hardAlpha"/>
<feOffset dy="2"/>
<feGaussianBlur stdDeviation="1.5"/>
<feColorMatrix type="matrix" values="0 0 0 0 0 0 0 0 0 0 0 0 0 0 0 0 0 0 0.3 0"/>
<feBlend mode="normal" in2="BackgroundImageFix" result="effect1_dropShadow_51596_5836"/>
<feColorMatrix in="SourceAlpha" type="matrix" values="0 0 0 0 0 0 0 0 0 0 0 0 0 0 0 0 0 0 127 0" result="hardAlpha"/>
<feMorphology radius="4" operator="dilate" in="SourceAlpha" result="effect2_dropShadow_51596_5836"/>
<feOffset dy="6"/>
<feGaussianBlur stdDeviation="5"/>
<feColorMatrix type="matrix" values="0 0 0 0 0 0 0 0 0 0 0 0 0 0 0 0 0 0 0.15 0"/>
<feBlend mode="normal" in2="effect1_dropShadow_51596_5836" result="effect2_dropShadow_51596_5836"/>
<feBlend mode="normal" in="SourceGraphic" in2="effect2_dropShadow_51596_5836" result="shape"/>
</filter>
<clipPath id="clip0_51596_5836">
<rect width="36.5714" height="36.5714" fill="white" transform="translate(27.7143 21.7142)"/>
</clipPath>
</defs>
</svg>
